<svg width="428" height="80" viewBox="0 0 428 80" fill="none" xmlns="http://www.w3.org/2000/svg">
<rect width="428" height="80" fill="white"/>
<g clip-path="url(#clip0_128_3576)">
<path d="M30 52H66V48H30V52ZM30 42H66V38H30V42ZM30 28V32H66V28H30Z" fill="#002F52"/>
</g>
<path d="M116 21.7188L132.148 55.8849H99.8511L116 21.7188Z" fill="#FECD2F"/>
<path fill-rule="evenodd" clip-rule="evenodd" d="M106.46 51.7672H125.54L116 31.5835L106.46 51.7672ZM96 54.1661L112.149 20H119.851L136 54.1661L132.149 60H99.8514L96 54.1661Z" fill="url(#paint0_linear_128_3576)"/>
<path d="M268.409 24C265.374 24 262.462 25.4125 260.561 27.6447C258.66 25.4125 255.748 24 252.714 24C247.343 24 243.123 28.2202 243.123 33.5913C243.123 40.1831 249.052 45.5542 258.033 53.7155L260.561 56L263.09 53.6981C272.071 45.5542 278 40.1831 278 33.5913C278 28.2202 273.78 24 268.409 24ZM260.736 51.1172L260.561 51.2916L260.387 51.1172C252.086 43.6011 246.61 38.6311 246.61 33.5913C246.61 30.1035 249.226 27.4877 252.714 27.4877C255.399 27.4877 258.015 29.2142 258.939 31.6033H262.2C263.107 29.2142 265.723 27.4877 268.409 27.4877C271.896 27.4877 274.512 30.1035 274.512 33.5913C274.512 38.6311 269.036 43.6011 260.736 51.1172Z" fill="url(#paint1_linear_128_3576)"/>
<g clip-path="url(#clip1_128_3576)">
<path d="M330.5 28.4993H327.333C327.333 25.0002 324.499 22.166 321 22.166C317.501 22.166 314.667 25.0002 314.667 28.4993H311.5C309.758 28.4993 308.333 29.9243 308.333 31.666V50.666C308.333 52.4077 309.758 53.8327 311.5 53.8327H330.5C332.242 53.8327 333.667 52.4077 333.667 50.666V31.666C333.667 29.9243 332.242 28.4993 330.5 28.4993ZM321 25.3327C322.742 25.3327 324.167 26.7577 324.167 28.4993H317.833C317.833 26.7577 319.258 25.3327 321 25.3327ZM330.5 50.666H311.5V31.666H314.667V34.8327C314.667 35.7035 315.379 36.416 316.25 36.416C317.121 36.416 317.833 35.7035 317.833 34.8327V31.666H324.167V34.8327C324.167 35.7035 324.879 36.416 325.75 36.416C326.621 36.416 327.333 35.7035 327.333 34.8327V31.666H330.5V50.666Z" fill="#002F52"/>
</g>
<path d="M380 24C371.168 24 364 31.168 364 40C364 48.832 371.168 56 380 56C388.832 56 396 48.832 396 40C396 31.168 388.832 24 380 24ZM372.112 50.048C372.8 48.608 376.992 47.2 380 47.2C383.008 47.2 387.216 48.608 387.888 50.048C385.712 51.776 382.976 52.8 380 52.8C377.024 52.8 374.288 51.776 372.112 50.048ZM390.176 47.728C387.888 44.944 382.336 44 380 44C377.664 44 372.112 44.944 369.824 47.728C368.192 45.584 367.2 42.912 367.2 40C367.2 32.944 372.944 27.2 380 27.2C387.056 27.2 392.8 32.944 392.8 40C392.8 42.912 391.808 45.584 390.176 47.728V47.728ZM380 30.4C376.896 30.4 374.4 32.896 374.4 36C374.4 39.104 376.896 41.6 380 41.6C383.104 41.6 385.6 39.104 385.6 36C385.6 32.896 383.104 30.4 380 30.4ZM380 38.4C378.672 38.4 377.6 37.328 377.6 36C377.6 34.672 378.672 33.6 380 33.6C381.328 33.6 382.4 34.672 382.4 36C382.4 37.328 381.328 38.4 380 38.4Z" fill="#002F52"/>
<defs>
<linearGradient id="paint0_linear_128_3576" x1="116" y1="20" x2="116" y2="60" gradientUnits="userSpaceOnUse">
<stop offset="0.677083" stop-color="#FD8325"/>
<stop offset="1" stop-color="#FC6621"/>
</linearGradient>
<linearGradient id="paint1_linear_128_3576" x1="257.695" y1="20.16" x2="307.945" y2="27.4119" gradientUnits="userSpaceOnUse">
<stop stop-color="#002F52"/>
<stop offset="1" stop-color="#326589"/>
</linearGradient>
<clipPath id="clip0_128_3576">
<rect width="48" height="48" fill="white" transform="translate(24 16)"/>
</clipPath>
<clipPath id="clip1_128_3576">
<rect width="38" height="38" fill="white" transform="translate(302 19)"/>
</clipPath>
</defs>
</svg>
